#N canvas 138 72 1510 800 12;
#X obj 629 14 r nrt;
#X obj 134 413 soundfiler;
#X obj 684 107 route name freq dur;
#X obj 902 256 array define locbuffer;
#X obj 952 380 array size locbuffer;
#X obj 412 737 tabwrite~ locbuffer;
#X msg 430 711 bang;
#X msg 841 256 const 0;
#X msg 426 322 fast-forward \$1;
#X obj 426 346 send pd;
#X msg 864 217 \; pd dsp 1;
#X obj 718 68 s \$0_startnrt;
#X obj 818 168 r \$0_startnrt;
#X obj 413 659 osc~;
#X obj 818 279 samplerate~;
#X obj 800 328 *;
#X obj 800 412 win_maker hann 1000 \$0-hannwin;
#X msg 883 381 type 4, f 7;
#X msg 800 381 size \$1;
#X obj 800 353 t f b f;
#X obj 502 683 tabread~ \$0-hannwin;
#X obj 800 140 t f f;
#X obj 349 546 pack 0 0;
#X msg 503 611 13230 300;
#X msg 608 611 0;
#X obj 503 580 t b b;
#X obj 426 299 f;
#X obj 413 683 *~;
#X obj 102 361 t b b;
#X msg 102 438 \; pd quit \;;
#X obj 844 140 s \$0_durms;
#X obj 412 546 r \$0_durms;
#X obj 458 298 r \$0_durms;
#X obj 120 281 r \$0_durms;
#X obj 102 310 f;
#X obj 727 435 s \$0_freq;
#X obj 413 630 r \$0_freq;
#X obj 861 353 s \$0_samps;
#X obj 349 520 r \$0_samps;
#X obj 818 193 t b b b;
#X obj 684 508 s \$0_writemsg;
#X obj 157 366 r \$0_writemsg;
#X obj 666 536 s \$0_recbang;
#X obj 503 556 r \$0_recbang;
#X obj 472 711 r \$0_recbang;
#X obj 629 37 t b b b a b;
#X obj 647 563 s \$0_ff;
#X obj 426 273 r \$0_ff;
#X obj 629 589 s \$0_write_close;
#X obj 102 255 r \$0_write_close;
#X obj 102 337 delay;
#X obj 724 17 print;
#X obj 683 459 symbol;
#X msg 684 483 set write -wave \$1 locbuffer;
#X msg 134 390 write -wave teste2.wav locbuffer;
#X msg 349 571 set \$1 \$2;
#X obj 503 644 line~;
#X obj 818 304 / 1000;
#X connect 0 0 51 0;
#X connect 0 0 45 0;
#X connect 2 0 52 0;
#X connect 2 1 35 0;
#X connect 2 2 21 0;
#X connect 6 0 5 0;
#X connect 7 0 3 0;
#X connect 8 0 9 0;
#X connect 12 0 39 0;
#X connect 13 0 27 0;
#X connect 14 0 57 0;
#X connect 15 0 19 0;
#X connect 17 0 16 0;
#X connect 18 0 16 0;
#X connect 19 0 18 0;
#X connect 19 1 17 0;
#X connect 19 2 4 0;
#X connect 19 2 37 0;
#X connect 20 0 27 1;
#X connect 21 0 15 0;
#X connect 21 1 30 0;
#X connect 22 0 55 0;
#X connect 23 0 56 0;
#X connect 24 0 56 0;
#X connect 25 0 23 0;
#X connect 25 1 24 0;
#X connect 26 0 8 0;
#X connect 27 0 5 0;
#X connect 28 0 29 0;
#X connect 28 1 54 0;
#X connect 31 0 22 1;
#X connect 32 0 26 1;
#X connect 33 0 34 1;
#X connect 34 0 50 0;
#X connect 36 0 13 0;
#X connect 38 0 22 0;
#X connect 39 0 14 0;
#X connect 39 1 7 0;
#X connect 39 2 10 0;
#X connect 41 0 54 0;
#X connect 43 0 25 0;
#X connect 44 0 6 0;
#X connect 45 0 48 0;
#X connect 45 1 46 0;
#X connect 45 2 42 0;
#X connect 45 3 2 0;
#X connect 45 4 11 0;
#X connect 47 0 26 0;
#X connect 49 0 34 0;
#X connect 50 0 28 0;
#X connect 52 0 53 0;
#X connect 53 0 40 0;
#X connect 54 0 1 0;
#X connect 55 0 23 0;
#X connect 56 0 20 0;
#X connect 57 0 15 1;
